<?xml version="1.0" encoding="UTF-8"?>
<!DOCTYPE svg PUBLIC "-//W3C//DTD SVG 1.1//EN" "http://www.w3.org/Graphics/SVG/1.1/DTD/svg11.dtd">
<svg xmlns="http://www.w3.org/2000/svg" xml:space="preserve" width="100%" height="100%" version="1.1" style="shape-rendering:geometricPrecision; text-rendering:geometricPrecision; image-rendering:optimizeQuality; fill-rule:evenodd; clip-rule:evenodd"
viewBox="0 0 1283 1634"
 xmlns:xlink="http://www.w3.org/1999/xlink">
 <defs>
  <style type="text/css">
   <![CDATA[
    .fil0 {fill:#9333EA;fill-rule:nonzero}
    .fil1 {fill:white;fill-rule:nonzero;fill-opacity:0.5}
   ]]>
  </style>
 </defs>
 <g id="Layer_x0020_1">
  <metadata id="CorelCorpID_0Corel-Layer"/>
  <path class="fil0" d="M1135 307c-156,-180 -393,-320 -381,-305 0,0 297,337 -343,380 0,0 -9,2 3,12 12,10 147,59 313,68 174,10 523,-8 454,555 239,-420 -46,-709 -46,-709z"/>
  <path class="fil0" d="M103 1265c40,32 153,66 456,-61l153 -62c62,-25 126,-38 181,-47 4,-1 7,-1 11,-2 14,-34 34,-59 34,-59 142,-180 109,-433 -260,-551 0,0 320,204 100,321 -157,83 -537,120 -689,318 -2,3 -4,5 -6,8 -11,14 -17,32 -18,50 0,4 0,8 1,12 3,23 13,52 38,71z"/>
  <path class="fil0" d="M901 1149c-58,9 -115,22 -169,43l-152 61c-632,264 -567,-110 -567,-110 -115,508 573,373 910,275 285,-83 249,216 249,216 211,-350 -13,-528 -271,-485z"/>
  <path class="fil0" d="M788 146c-29,-40 -137,-73 -137,-73 0,0 116,105 100,193 31,-26 56,-93 37,-120z"/>
  <path class="fil1" d="M1168 1242c-136,-118 -368,-38 -578,52 -81,34 -149,54 -200,69 82,-8 222,-67 421,-91 255,-32 312,35 331,61l-24 -45c119,50 91,213 91,213 0,0 75,-157 -42,-258z"/>
  <path class="fil1" d="M837 124c0,0 79,229 -353,264 0,0 440,22 353,-264z"/>
  <path class="fil1" d="M518 927c4,-2 -287,62 -418,218 0,0 155,-124 418,-218z"/>
 </g>
</svg>
